<?xml version="1.0" encoding="UTF-8" standalone="no"?>
<svg
   xmlns:dc="http://purl.org/dc/elements/1.1/"
   xmlns:cc="http://creativecommons.org/ns#"
   xmlns:rdf="http://www.w3.org/1999/02/22-rdf-syntax-ns#"
   xmlns:svg="http://www.w3.org/2000/svg"
   xmlns="http://www.w3.org/2000/svg"
   xmlns:sodipodi="http://sodipodi.sourceforge.net/DTD/sodipodi-0.dtd"
   xmlns:inkscape="http://www.inkscape.org/namespaces/inkscape"
   version="1.1"
   id="svg2"
   xml:space="preserve"
   width="648.18665"
   height="180.38667"
   viewBox="0 0 648.18665 180.38667"
   sodipodi:docname="Podogo_Long_Black.eps"><metadata
     id="metadata8"><rdf:RDF><cc:Work
         rdf:about=""><dc:format>image/svg+xml</dc:format><dc:type
           rdf:resource="http://purl.org/dc/dcmitype/StillImage" /></cc:Work></rdf:RDF></metadata><defs
     id="defs6" /><sodipodi:namedview
     pagecolor="#ffffff"
     bordercolor="#666666"
     borderopacity="1"
     objecttolerance="10"
     gridtolerance="10"
     guidetolerance="10"
     inkscape:pageopacity="0"
     inkscape:pageshadow="2"
     inkscape:window-width="640"
     inkscape:window-height="480"
     id="namedview4" /><g
     id="g10"
     inkscape:groupmode="layer"
     inkscape:label="ink_ext_XXXXXX"
     transform="matrix(1.3333333,0,0,-1.3333333,0,180.38667)"><g
       id="g12"
       transform="scale(0.1)"><path
         d="M 4783.79,77.6406 H 77.5898 V 1275.3 H 4783.79 Z M 0,1352.93 V 0 H 4861.38 V 1352.93 H 0"
         style="fill:#231f20;fill-opacity:1;fill-rule:nonzero;stroke:none"
         id="path14" /><path
         d="m 1353.24,845.273 c 78.56,0 118.41,-56.582 118.41,-168.132 0,-4.465 -0.1,-8.852 -0.2,-13.176 -3.08,-102.422 -42.82,-154.356 -118.21,-154.356 -78.58,0 -118.4,56.368 -118.4,167.532 0,111.55 39.82,168.132 118.4,168.132 z m 0,-413.359 c 122.8,0 196.11,91.641 196.11,245.227 0,153.953 -73.31,245.816 -196.11,245.816 -122.84,0 -196.14,-91.863 -196.14,-245.816 0,-153.586 73.3,-245.227 196.14,-245.227"
         style="fill:#231f20;fill-opacity:1;fill-rule:nonzero;stroke:none"
         id="path16" /><path
         d="m 4223.37,845.305 c 78.56,0 118.38,-56.614 118.38,-168.164 0,-111.114 -39.82,-167.5 -118.38,-167.5 -78.58,0 -118.42,56.386 -118.42,167.5 0,111.55 39.84,168.164 118.42,168.164 z m 0,-413.391 c 122.79,0 196.16,91.66 196.16,245.227 0,153.953 -73.37,245.867 -196.16,245.867 -122.78,0 -196.1,-91.914 -196.1,-245.867 0,-153.567 73.32,-245.227 196.1,-245.227"
         style="fill:#231f20;fill-opacity:1;fill-rule:nonzero;stroke:none"
         id="path18" /><path
         d="m 3506.47,431.914 c 122.78,0 196.12,91.66 196.12,245.227 0,22.332 -16.88,39.168 -39.17,39.168 h -91.08 c -21.63,0 -38.55,-17.168 -38.55,-39.168 0,-19.25 14.87,-39.133 39.75,-39.133 h 49.63 c -6.96,-63.047 -34.14,-128.367 -116.7,-128.367 -97.91,0 -118.43,91.082 -118.43,167.5 0,62.8 15.35,168.164 118.43,168.164 36.96,0 63.48,-10.989 81.07,-33.633 l 1.65,-2.055 c 6.77,-8.719 16.95,-21.851 35.28,-21.851 22.24,0 40.38,17.293 40.38,38.582 0,3.484 0,13.722 -8.38,23.23 -33.68,48.059 -85.51,73.43 -150,73.43 -122.84,0 -196.13,-91.914 -196.13,-245.867 0,-153.567 73.29,-245.227 196.13,-245.227"
         style="fill:#231f20;fill-opacity:1;fill-rule:nonzero;stroke:none"
         id="path20" /><path
         d="m 2789.54,845.305 c 78.54,0 118.38,-56.614 118.38,-168.164 0,-111.114 -39.84,-167.5 -118.38,-167.5 -78.56,0 -118.43,56.386 -118.43,167.5 0,111.55 39.87,168.164 118.43,168.164 z m 0,-413.391 c 122.79,0 196.1,91.66 196.1,245.227 0,153.953 -73.31,245.867 -196.1,245.867 -122.77,0 -196.11,-91.914 -196.11,-245.867 0,-153.567 73.34,-245.227 196.11,-245.227"
         style="fill:#231f20;fill-opacity:1;fill-rule:nonzero;stroke:none"
         id="path22" /><path
         d="m 1988.38,835.09 h 94.41 c 71.82,0 108.22,-53.137 108.22,-157.949 0,-104.399 -36.4,-157.356 -108.22,-157.356 h -94.41 z m -38.59,-393.027 h 133 c 118.18,0 185.95,85.906 185.95,235.679 0,149.004 -67.77,234.457 -185.95,234.457 h -133 c -21.24,0 -39.16,-17.629 -39.16,-38.578 V 480.645 c 0,-20.555 18.32,-38.582 39.16,-38.582"
         style="fill:#231f20;fill-opacity:1;fill-rule:nonzero;stroke:none"
         id="path24" /><path
         d="m 522.344,835.09 h 123.808 c 35.86,0 65.059,-29.492 65.059,-65.684 0,-36.496 -28.848,-65.09 -65.691,-65.09 H 522.344 Z M 483.789,442.063 c 18.555,0 38.555,14.753 38.555,38.582 v 145.937 h 123.808 c 78.711,0 142.793,64.375 142.793,143.449 0,78.387 -64.336,142.168 -143.425,142.168 H 483.789 c -21.25,0 -39.172,-17.629 -39.172,-38.547 V 480.645 c 0,-21.622 17.199,-38.582 39.172,-38.582"
         style="fill:#231f20;fill-opacity:1;fill-rule:nonzero;stroke:none"
         id="path26" /></g></g></svg>
